<svg xmlns="http://www.w3.org/2000/svg" width="20" height="20">
  <path style="stroke:none;fill-rule:nonzero;fill:#24292f;fill-opacity:1"
    d="M12.594 9.75a2.844 2.844 0 1 1-5.688 0 2.844 2.844 0 0 1 5.688 0zm0 0" />
  <path style="stroke:none;fill-rule:nonzero;fill:#24292f;fill-opacity:1"
    d="M9.75 2.844c2.79 0 4.977 1.246 6.543 2.633a14.632 14.632 0 0 1 2.937 3.625c.235.402.235.894 0 1.296a14.632 14.632 0 0 1-2.937 3.625c-1.566 1.387-3.754 2.633-6.543 2.633-2.79 0-4.977-1.246-6.543-2.633A14.632 14.632 0 0 1 .27 10.398a1.284 1.284 0 0 1 0-1.296 14.704 14.704 0 0 1 2.937-3.625C4.773 4.09 6.961 2.844 9.75 2.844zM1.328 9.707a.082.082 0 0 0-.016.043c0 .016.004.031.016.047.356.629 1.258 2.05 2.688 3.312 1.421 1.258 3.332 2.329 5.734 2.329s4.313-1.07 5.734-2.329a13.428 13.428 0 0 0 2.688-3.312.075.075 0 0 0 .015-.047.075.075 0 0 0-.015-.047 13.5 13.5 0 0 0-2.688-3.312c-1.421-1.258-3.332-2.329-5.734-2.329S5.437 5.13 4.016 6.392a13.428 13.428 0 0 0-2.688 3.316zm0 0" />
</svg>