<svg xmlns="http://www.w3.org/2000/svg" width="20" height="20">
  <path
    style="fill:none;stroke-width:2;stroke-linecap:round;stroke-linejoin:round;stroke:#24292f;stroke-opacity:1;stroke-miterlimit:4"
    d="M5.002 5.498a3.497 3.497 0 0 1 3.496-3.496H12V9H8.498a3.498 3.498 0 0 1-3.496-3.502zM12 2.002h3.502a3.497 3.497 0 0 1 3.496 3.496A3.498 3.498 0 0 1 15.502 9H12zm0 0"
    transform="scale(.83333)" />
  <path
    style="fill:none;stroke-width:2;stroke-linecap:round;stroke-linejoin:round;stroke:#24292f;stroke-opacity:1;stroke-miterlimit:4"
    d="M12 12.502a3.499 3.499 0 1 1 6.998-.006 3.499 3.499 0 0 1-6.998.006zM5.002 19.5a3.5 3.5 0 0 1 3.496-3.502H12V19.5a3.502 3.502 0 0 1-3.502 3.502A3.5 3.5 0 0 1 5.002 19.5zm0 0"
    transform="scale(.83333)" />
  <path
    style="fill:none;stroke-width:2;stroke-linecap:round;stroke-linejoin:round;stroke:#24292f;stroke-opacity:1;stroke-miterlimit:4"
    d="M5.002 12.502A3.498 3.498 0 0 1 8.498 9H12v6.998H8.498a3.497 3.497 0 0 1-3.496-3.496zm0 0"
    transform="scale(.83333)" />
</svg>