<svg xmlns="http://www.w3.org/2000/svg" width="20" height="20">
  <path style="stroke:none;fill-rule:nonzero;fill:#24292f;fill-opacity:1"
    d="M9.992 1.492a8.733 8.733 0 0 0-8.742 8.735 8.743 8.743 0 0 0 5.855 8.25c.457.117.387-.211.387-.434v-1.512c-2.648.309-2.758-1.445-2.933-1.738-.36-.613-1.207-.77-.957-1.063.605-.308 1.218.079 1.933 1.13.516.765 1.52.636 2.031.507.11-.457.348-.867.676-1.187-2.742-.492-3.89-2.164-3.89-4.157 0-.968.32-1.859.945-2.574-.399-1.18.035-2.191.094-2.344 1.136-.101 2.316.813 2.406.887.648-.176 1.383-.265 2.207-.265.828 0 1.566.093 2.215.27.222-.169 1.316-.954 2.37-.856.056.148.481 1.136.106 2.304.633.72.957 1.614.957 2.582 0 1.996-1.152 3.676-3.906 4.16.477.465.746 1.106.742 1.778v2.195c.016.176 0 .348.293.348 3.461-1.164 5.953-4.43 5.953-8.281 0-4.829-3.918-8.735-8.742-8.735zm0 0" />
</svg>