<svg xmlns="http://www.w3.org/2000/svg" width="20" height="20">
  <path style="stroke:none;fill-rule:nonzero;fill:#24292f;fill-opacity:1"
    d="M10 .207c.238 0 .457.137.563.352l2.546 5.164 5.7.828a.622.622 0 0 1 .343 1.062l-4.12 4.02.972 5.676a.627.627 0 0 1-.906.66L10 15.289l-5.098 2.68a.622.622 0 0 1-.906-.657l.973-5.68L.848 7.614a.62.62 0 0 1-.16-.64.628.628 0 0 1 .503-.426l5.7-.824L9.44.559A.622.622 0 0 1 10 .207zm0 2.04-2.133 4.32a.626.626 0 0 1-.472.343l-4.77.692 3.453 3.367a.624.624 0 0 1 .18.554l-.817 4.75 4.27-2.242a.607.607 0 0 1 .578 0l4.27 2.242-.817-4.75a.624.624 0 0 1 .18-.554l3.453-3.367-4.77-.692a.622.622 0 0 1-.472-.34zm0 0" />
</svg>